<svg width="15" height="15" viewBox="0 0 15 15" fill="none" xmlns="http://www.w3.org/2000/svg">
<g clip-path="url(#clip0_2012_50)">
<path d="M7.4999 1.60359C4.24818 1.60359 1.60303 4.24828 1.60303 7.5C1.60303 10.7517 4.24818 13.3969 7.4999 13.3969C10.7516 13.3969 13.3968 10.7512 13.3968 7.5C13.3968 4.24875 10.7516 1.60359 7.4999 1.60359ZM10.3077 11.1975L7.4999 9.22969L4.6935 11.1975L5.76459 8.01422L2.92725 6.02672H6.43303L7.4985 2.86453L8.56443 6.02672H12.0712L9.23521 8.01422L10.3077 11.1975Z" fill="white"/>
<path d="M10.5863 6.49547H8.22849L7.49911 4.33218L6.7702 6.49547H4.41333L6.3202 7.8314L5.5927 9.99468L7.50005 8.65734L9.40786 9.99468L8.67895 7.8314L10.5863 6.49547Z" fill="white"/>
<path d="M7.5 0C3.35766 0 0 3.35766 0 7.5C0 11.6423 3.35766 15 7.5 15C11.6423 15 15 11.6423 15 7.5C15 3.35766 11.6423 0 7.5 0ZM7.5 13.8656C3.99 13.8656 1.13438 11.01 1.13438 7.5C1.13438 3.99 3.99 1.13484 7.5 1.13484C11.01 1.13484 13.8656 3.99 13.8656 7.5C13.8656 11.01 11.01 13.8656 7.5 13.8656Z" fill="white"/>
</g>
<defs>
<clipPath id="clip0_2012_50">
<rect width="15" height="15" fill="white"/>
</clipPath>
</defs>
</svg>
