<svg width="75" height="61" viewBox="0 0 75 61" fill="none" xmlns="http://www.w3.org/2000/svg">
<path d="M45.6118 0.169933C43.8394 0.491611 42.1109 1.31368 40.939 2.39786C39.7671 3.48204 38.8003 5.32872 38.8003 6.50821C38.8003 6.79415 38.7417 7.02052 38.6685 7.02052C38.5952 7.02052 37.9214 6.88946 37.1597 6.73458C34.6988 6.19845 33.6001 6.12696 28.5464 6.12696C23.5366 6.12696 22.8482 6.17462 20.2261 6.73458C12.9898 8.25958 6.89603 12.632 4.21537 18.2078C3.60014 19.4945 2.99955 21.234 2.82377 22.2348C2.73588 22.7471 2.66264 22.8424 2.06205 23.1641C1.69584 23.3666 1.1685 23.7955 0.904827 24.1053C0.0112727 25.1537 -0.0326726 25.5111 0.0112727 29.7406L0.055218 33.5293L0.436077 34.1965C0.934124 35.0543 1.84233 35.793 2.89701 36.1981C3.62943 36.4721 3.9224 36.5078 5.62162 36.5436L7.54057 36.5793L7.78959 37.5563C8.39017 39.9391 10.3824 42.1432 13.1363 43.4775C14.147 43.9541 16.1538 44.5498 16.7691 44.5498C16.9595 44.5498 17.1206 44.5975 17.1206 44.6689C17.1206 44.7285 17.062 44.7881 17.0035 44.7881C16.7398 44.7881 14.6158 46.5037 13.9126 47.2781C13.0191 48.267 12.0962 49.8039 11.6714 51.0668C11.3785 51.9246 11.3492 52.2701 11.3345 55.4512C11.3345 58.5369 11.3638 58.942 11.5982 59.2875C11.9497 59.8236 12.7261 60.4313 13.3999 60.7053C13.9566 60.9197 14.4253 60.9316 28.7661 60.9316H43.5611L44.1616 60.6695C44.9966 60.3121 45.7876 59.5139 46.0513 58.799C46.315 58.0842 46.3589 54.093 46.1245 52.5441C45.6851 49.7205 43.8101 46.9445 41.232 45.2647C40.7779 44.9668 40.4116 44.7047 40.4116 44.6689C40.4116 44.6332 40.895 44.5141 41.4663 44.4068C43.4732 44.0137 45.5532 43.0248 46.9302 41.7977C48.4683 40.4395 49.3325 39.0098 49.8452 36.901L49.9331 36.5912L51.8667 36.5436C53.6392 36.5078 53.8882 36.484 54.6353 36.1742C55.5581 35.8168 56.481 35.0662 56.9497 34.3275C57.4624 33.5055 57.5796 32.3498 57.521 28.8352L57.4624 25.5469L57.0523 24.8082C56.5542 23.9266 55.5288 23.0926 54.4741 22.7113L53.7564 22.4492L55.1919 21.4127L56.6275 20.3881L62.1792 20.3404L67.731 20.3047L68.9761 19.9354C71.2612 19.2801 72.9751 18.0768 74.0151 16.3969C74.8794 15.0029 74.9819 14.3715 74.9819 10.1063C74.9819 6.74649 74.9526 6.2461 74.689 5.42403C74.2788 4.08966 73.6196 3.16036 72.3452 2.12384C71.1001 1.08731 70.0015 0.575012 68.2729 0.21759C67.2329 0.00313568 66.5884 -0.00877762 56.8325 0.00313568C48.8198 0.00313568 46.3003 0.0507927 45.6118 0.169933ZM67.3794 2.13575C69.7378 2.49318 71.73 4.05392 72.2573 5.94825C72.5503 6.96095 72.5942 13.1682 72.3306 14.1928C71.7593 16.3373 69.6206 17.9338 66.9253 18.2197C66.3247 18.2793 63.644 18.3389 60.9634 18.3389C58.2388 18.3389 55.939 18.3865 55.7339 18.458C55.5288 18.5176 53.8735 19.6375 52.0571 20.96L48.7612 23.3428V21.7106C48.7612 20.8051 48.688 19.8758 48.6148 19.6494C48.3804 18.9584 47.6333 18.4699 46.3882 18.1959C44.9087 17.8861 44.2056 17.5764 43.2681 16.8854C42.7114 16.4684 42.3013 16.0156 41.9204 15.3842L41.3638 14.4787L41.3198 10.4875C41.2759 7.02052 41.3052 6.38907 41.5249 5.7338C42.0962 4.00626 43.8394 2.62423 46.0513 2.18341C46.9888 1.99278 66.1782 1.95704 67.3794 2.13575ZM33.9077 12.4414C34.6255 12.5486 35.4019 12.7274 35.6509 12.8346C36.0464 13.0252 36.105 13.1443 36.2661 13.9902C36.5445 15.3961 37.3648 16.6828 38.5659 17.5883C39.6206 18.3984 40.9097 18.9703 42.0962 19.1729C42.521 19.2443 43.0484 19.4111 43.2534 19.5422C43.6196 19.7805 43.6343 19.8162 43.6343 21.2697V22.759L43.1655 22.4731C42.4478 22.0322 41.5982 21.7106 40.6021 21.508C39.2984 21.234 18.2193 21.2221 16.9156 21.4961C14.3081 22.0561 12.316 23.5811 11.5103 25.666C11.232 26.3809 11.188 26.774 11.188 28.4658C11.188 30.1695 11.232 30.5508 11.5103 31.2775C12.1109 32.8264 13.4292 34.1131 15.187 34.8756C16.8863 35.6143 16.8423 35.6143 28.7222 35.6143C36.0464 35.6143 39.7671 35.5666 40.2945 35.4832C41.6275 35.2568 42.8872 34.685 43.9712 33.8272L44.9673 33.0408L44.9234 34.5897L44.8794 36.1385L42.2427 37.3656L39.606 38.5928H37.6577C35.7827 38.5928 35.6948 38.6047 35.3579 38.8906C34.8452 39.2957 34.8599 39.9986 35.3726 40.3918C35.7388 40.6658 35.812 40.6777 38.1118 40.6777H40.4849L42.1695 39.8795C43.0923 39.4387 43.8687 39.0932 43.898 39.1289C43.9273 39.1527 43.7661 39.4268 43.5464 39.7484C43.0337 40.4752 40.939 42.1789 40.2359 42.441C39.7525 42.6197 38.7417 42.6436 28.8101 42.6436C19.8306 42.6436 17.7505 42.6078 16.9009 42.4648C14.396 42.0359 12.0962 40.5824 10.9976 38.7C10.6753 38.152 10.3238 37.3775 10.2359 36.9844C10.1187 36.484 10.0894 34.2799 10.1187 29.7764L10.1773 23.2832L10.5581 22.1156C11.0122 20.7813 11.979 19.0656 12.8726 17.9934C15.2163 15.1697 19.2154 13.0609 23.3755 12.4533C25.0601 12.2031 32.1646 12.2031 33.9077 12.4414ZM7.45267 29.4904V34.5658L5.88529 34.5301C4.17143 34.4705 3.58549 34.3037 3.0142 33.6961C2.57475 33.1957 2.48686 32.5404 2.48686 29.4785C2.48686 26.4285 2.57475 25.7613 3.0142 25.2609C3.55619 24.6652 4.42045 24.415 6.01713 24.415H7.45267V29.4904ZM52.0278 25.118L52.4234 25.7732V29.4785V33.1838L52.0278 33.8391L51.6177 34.4824L50.856 34.5182L50.0796 34.5539V29.8479V25.1418L50.6362 24.7844C50.9292 24.5699 51.2808 24.427 51.398 24.4389C51.5151 24.4627 51.7935 24.7606 52.0278 25.118ZM20.9292 27.8463C21.5738 28.5016 21.0318 29.419 19.9771 29.419C18.9224 29.419 18.3804 28.5016 19.0249 27.8344C19.5083 27.334 20.4458 27.334 20.9292 27.8463ZM37.9361 27.5127C38.2583 27.5127 38.6538 28.0131 38.6538 28.4301C38.6538 29.0139 38.1851 29.419 37.4966 29.419C36.5738 29.419 36.0464 28.6922 36.398 27.9297C36.5152 27.6914 37.3208 27.3816 37.5991 27.4531C37.7163 27.4889 37.8628 27.5127 37.9361 27.5127ZM24.1812 48.5053C24.6499 49.3393 25.5874 50.0898 26.6421 50.4949C27.3306 50.757 27.6382 50.8047 28.7661 50.7928C29.8355 50.7928 30.2163 50.7451 30.773 50.5188C31.857 50.0898 32.7359 49.3869 33.2632 48.5172C33.688 47.8023 33.732 47.6236 33.7906 46.325L33.8491 44.9072H34.2593C34.8452 44.9072 36.354 45.765 37.6284 46.8135C38.9614 47.9215 39.9429 49.232 40.5874 50.7451L41.0562 51.877L41.1148 55.1771C41.1587 57.4527 41.1148 58.5488 40.9976 58.7156L40.8364 58.9658H27.9458C13.854 58.9658 14.2202 58.9777 13.8833 58.2867C13.6343 57.7625 13.8101 52.6633 14.1031 51.7102C14.3814 50.8285 15.2896 49.2082 15.8609 48.6006C17.5747 46.742 20.1089 45.4076 22.7456 44.9787L23.6392 44.8238L23.7124 46.325C23.771 47.6236 23.8443 47.9215 24.1812 48.5053Z" fill="white"/>
<path d="M45.3982 5.35254C44.7683 5.86484 44.9002 6.66309 45.6912 6.98477C45.8963 7.06816 46.4236 7.13965 46.8631 7.13965C47.3025 7.13965 47.8299 7.06816 48.0349 6.98477C48.826 6.66309 48.9578 5.86484 48.3279 5.35254C48.0789 5.15 47.8299 5.11426 46.8631 5.11426C45.8963 5.11426 45.6472 5.15 45.3982 5.35254Z" fill="white"/>
<path d="M51.6236 5.41211C51.0816 5.84102 51.1256 6.43672 51.7115 6.82988L52.1656 7.13965H59.9147C68.1031 7.13965 68.3521 7.12773 68.6012 6.60352C68.7916 6.17461 68.6891 5.62656 68.3521 5.37637L68.0152 5.11426H59.9879H51.9752L51.6236 5.41211Z" fill="white"/>
<path d="M45.53 9.31992C44.8562 9.73691 44.7976 10.3684 45.3835 10.8449L45.823 11.1904L56.9704 11.1666L68.1325 11.1309L68.4109 10.8449C68.8064 10.4518 68.7771 9.82031 68.323 9.46289L67.9714 9.16504H56.8679C48.3718 9.17695 45.7058 9.20078 45.53 9.31992Z" fill="white"/>
<path d="M45.3397 13.5852C44.8416 14.0617 44.8563 14.4668 45.3836 14.8957L45.8084 15.2412H50.6424H55.4617L55.8572 14.9314C56.1063 14.717 56.2381 14.4906 56.2381 14.2285C56.2381 13.9664 56.1063 13.74 55.8572 13.5256L55.4617 13.2158H50.5985H45.7205L45.3397 13.5852Z" fill="white"/>
</svg>
