<?xml version="1.0" standalone="no"?>
<!DOCTYPE svg PUBLIC "-//W3C//DTD SVG 20010904//EN"
 "http://www.w3.org/TR/2001/REC-SVG-20010904/DTD/svg10.dtd">
<svg version="1.0" xmlns="http://www.w3.org/2000/svg"
 width="626.000000pt" height="626.000000pt" viewBox="0 0 626.000000 626.000000"
 preserveAspectRatio="xMidYMid meet">

<g transform="translate(0.000000,626.000000) scale(0.100000,-0.100000)"
fill="#000000" stroke="none">
<path d="M2925 5810 c-160 -24 -281 -94 -301 -175 -4 -18 -14 -26 -38 -29
-340 -52 -541 -108 -686 -193 -139 -82 -235 -228 -255 -387 -7 -50 -10 -57
-34 -62 -56 -13 -68 -17 -112 -45 -26 -16 -58 -46 -72 -67 -49 -71 -57 -111
-57 -298 0 -152 3 -180 21 -230 35 -93 112 -155 221 -178 23 -5 28 -13 34 -54
25 -171 136 -317 306 -400 142 -69 375 -134 571 -157 32 -4 56 -10 53 -12 -3
-3 -38 -16 -78 -30 -105 -34 -242 -105 -320 -164 -47 -35 -74 -49 -87 -44 -39
12 -156 -15 -241 -57 -266 -130 -500 -533 -640 -1101 -47 -193 -57 -279 -41
-373 23 -131 78 -217 173 -269 45 -25 64 -29 128 -29 94 0 164 29 233 98 91
92 137 222 197 561 12 66 24 127 27 135 3 8 15 -30 28 -85 38 -167 94 -322
166 -465 202 -398 509 -629 904 -681 341 -44 717 99 945 362 165 189 306 468
360 712 8 32 16 54 20 50 4 -4 19 -72 34 -151 45 -240 85 -341 174 -436 101
-107 273 -128 393 -49 123 81 174 275 130 493 -73 359 -208 709 -360 936 -73
109 -212 246 -297 291 -66 35 -159 63 -212 63 -23 0 -49 12 -85 39 -78 59
-196 119 -316 161 l-106 38 40 7 c481 83 707 192 806 387 34 68 59 146 59 190
0 24 5 28 54 38 97 20 177 91 212 187 9 26 13 92 14 215 0 154 -3 184 -20 230
-35 90 -114 159 -206 178 -54 11 -54 12 -54 48 0 102 -59 231 -145 317 -118
120 -380 220 -692 265 -80 12 -82 13 -93 45 -27 82 -128 144 -277 170 -91 16
-385 19 -478 5z m491 -56 c94 -19 169 -58 199 -102 13 -20 23 -37 21 -39 -1
-2 -63 2 -137 8 -82 7 -268 10 -481 7 -386 -5 -371 -8 -293 60 44 39 141 69
260 81 114 12 342 4 431 -15z m-24 -174 c393 -22 674 -80 888 -183 151 -73
251 -199 279 -351 15 -80 15 -882 0 -962 -16 -89 -64 -181 -129 -245 -227
-227 -915 -339 -1705 -278 -419 32 -744 131 -888 268 -69 65 -102 118 -128
202 -17 56 -19 99 -19 534 0 445 1 477 20 538 26 85 87 175 153 226 246 189
850 288 1529 251z m-1752 -1026 l0 -366 -32 6 c-55 11 -120 58 -153 110 l-30
49 -3 190 c-3 187 -3 190 23 243 15 30 42 66 61 80 32 25 95 53 122 54 9 0 12
-80 12 -366z m3041 351 c64 -23 104 -59 134 -119 26 -53 26 -56 23 -243 l-3
-190 -30 -49 c-32 -52 -96 -98 -152 -109 l-33 -7 0 366 c0 202 4 366 9 366 5
0 28 -7 52 -15z m-1051 -1455 c0 -86 -12 -112 -80 -173 -50 -45 -137 -85 -230
-106 -79 -18 -278 -13 -362 8 -191 49 -287 140 -288 271 l0 56 358 -4 c196 -2
404 1 462 6 58 5 113 10 123 11 15 1 17 -8 17 -69z m-1006 8 c3 -13 6 -38 6
-57 0 -77 70 -164 170 -216 92 -47 179 -67 311 -72 159 -7 261 12 375 67 133
65 194 146 194 258 0 41 1 42 28 36 187 -45 425 -184 518 -303 124 -158 152
-279 133 -578 -55 -855 -449 -1427 -1052 -1523 -105 -17 -308 -8 -409 19 -190
50 -331 133 -484 285 -295 293 -455 735 -471 1301 -4 145 -2 193 11 249 55
232 262 425 564 526 106 35 98 35 106 8z m-602 -280 c-121 -160 -150 -312
-121 -641 l10 -125 -60 -306 c-33 -168 -70 -329 -82 -358 -68 -159 -168 -245
-289 -247 -68 -1 -113 15 -162 59 -105 92 -132 249 -83 471 55 250 140 498
233 684 141 282 323 467 505 511 100 24 102 22 49 -48z m2343 23 c206 -95 376
-323 520 -696 88 -227 165 -535 165 -659 0 -133 -54 -256 -133 -305 -166 -103
-362 10 -441 255 -9 28 -36 150 -59 271 -43 219 -43 222 -30 304 7 46 16 176
19 289 5 170 3 217 -10 274 -21 87 -65 180 -116 245 -22 28 -40 53 -40 57 0
11 64 -7 125 -35z"/>
<path d="M2830 5273 c-19 -1 -87 -8 -150 -14 -325 -31 -622 -119 -731 -217
-63 -56 -93 -103 -114 -175 -14 -47 -15 -109 -13 -429 l3 -373 32 -66 c19 -39
52 -84 79 -109 78 -72 256 -142 469 -185 233 -47 385 -59 735 -60 347 0 484
10 705 50 366 68 552 167 615 330 22 57 24 75 28 377 5 370 -2 451 -50 540
-54 102 -142 161 -332 223 -160 52 -352 86 -590 105 -117 9 -602 12 -686 3z
m-214 -588 c89 -37 157 -138 158 -237 1 -52 -2 -63 -24 -80 -22 -18 -32 -19
-95 -12 -38 5 -101 9 -140 9 -38 0 -102 -4 -140 -9 -61 -7 -73 -6 -93 10 -72
59 -3 252 111 310 64 34 154 37 223 9z m1280 -5 c86 -37 145 -123 152 -222 4
-51 2 -59 -22 -83 -25 -25 -29 -26 -99 -18 -92 10 -193 10 -282 -1 -65 -7 -72
-6 -94 14 -21 20 -23 30 -19 90 10 182 194 294 364 220z m-602 -536 c43 -16 3
-117 -63 -161 -85 -57 -216 2 -237 105 -11 56 2 62 151 62 74 0 140 -3 149 -6z"/>
</g>
</svg>
