<svg width="45" height="40" viewBox="0 0 45 40" fill="none" xmlns="http://www.w3.org/2000/svg">
<path d="M34.3689 4.95241C34.6318 5.2222 34.8906 5.49573 35.1468 5.77421C35.3185 5.95872 35.492 6.13137 35.6742 6.30082C36.0384 6.6727 36.3381 7.08145 36.6454 7.51803C36.6886 7.5785 36.7317 7.63897 36.7762 7.70127C37.352 8.51058 37.8903 9.33274 38.3651 10.2294C38.4065 10.307 38.4479 10.3846 38.4906 10.4645C38.6739 10.8159 38.8288 11.1498 38.964 11.5318C39.0902 11.8877 39.1853 12.1423 39.4167 12.416C39.7866 12.5131 40.1253 12.518 40.5039 12.5167C41.6979 12.5265 42.7302 13.3453 43.5761 14.2669C44.8349 15.8246 45.0071 17.8757 44.9989 19.927C44.9991 20.1064 44.9993 20.2858 44.9997 20.4652C45.0001 20.8384 44.9995 21.2116 44.9981 21.5848C44.9964 22.0584 44.9974 22.5319 44.9992 23.0055C45.0003 23.3751 44.9999 23.7447 44.9991 24.1143C44.999 24.2887 44.9992 24.4631 44.9999 24.6375C45.0063 26.6873 44.7377 28.6082 43.4926 30.1389C42.4896 31.2381 41.2023 31.9286 39.8126 31.8914C39.6469 31.8572 39.4816 31.8195 39.3178 31.7748C39.2829 31.9148 39.2829 31.9148 39.2474 32.0576C38.3175 35.0955 36.4209 37.7347 33.9723 39.181C32.3351 40.04 30.7061 39.9917 28.9477 39.9886C28.7484 39.9889 28.5491 39.9894 28.3498 39.99C27.7254 39.9916 27.1009 39.9914 26.4765 39.9901C25.8345 39.9887 25.1926 39.9904 24.5506 39.9935C23.9965 39.9961 23.4423 39.9969 22.8882 39.9962C22.5585 39.9958 22.2288 39.9963 21.8991 39.9981C21.532 39.9998 21.1649 39.9986 20.7978 39.9966C20.6899 39.9977 20.582 39.9988 20.4709 40C19.8138 39.9925 19.3898 39.8848 18.8296 39.4716C18.4557 38.9427 18.4772 38.4276 18.4925 37.7642C18.5781 36.9307 18.8635 36.3167 19.4235 35.7981C20.0352 35.2982 20.5604 35.2362 21.2874 35.2341C21.3815 35.2334 21.4756 35.2326 21.5725 35.2318C21.7713 35.2306 21.97 35.2301 22.1688 35.2301C22.4712 35.2296 22.7734 35.2254 23.0758 35.2209C23.2694 35.2202 23.463 35.2198 23.6567 35.2196C23.7463 35.2179 23.8359 35.2162 23.9283 35.2145C24.5193 35.2194 24.9744 35.3292 25.4611 35.7398C25.5543 35.8623 25.6455 35.987 25.7345 36.1138C26.001 36.4484 26.201 36.495 26.5866 36.5245C26.7984 36.5267 27.0103 36.5251 27.2221 36.5201C27.3352 36.52 27.4482 36.5198 27.5646 36.5197C27.8035 36.5186 28.0423 36.5158 28.2811 36.5115C28.6439 36.5052 29.0065 36.5043 29.3693 36.5044C29.6021 36.5027 29.8349 36.5007 30.0677 36.4983C30.2286 36.4977 30.2286 36.4977 30.3928 36.4971C32.0664 36.4608 33.3825 35.699 34.5758 34.3376C37.1081 31.159 38.3952 26.1663 38.3427 21.8899C38.152 16.9887 36.6265 12.8029 33.8741 9.15069C33.8166 9.07447 33.7592 8.99826 33.7001 8.91973C32.7633 7.75219 31.5775 6.81885 30.4099 6.00198C30.3233 5.94135 30.3233 5.94135 30.2349 5.8795C26.6759 3.42953 22.3065 2.91894 18.3478 4.13027C14.3182 5.42975 10.8703 8.5673 8.75261 12.8023C6.65049 17.1474 6.13647 22.2708 7.20263 27.0945C7.46878 28.2255 7.82506 29.3106 8.28363 30.3525C8.32449 30.4454 8.36535 30.5383 8.40745 30.634C8.48649 30.8104 8.56737 30.9858 8.65045 31.1596C8.9213 31.7544 9.01676 32.2663 8.93201 32.9409C8.72316 33.4626 8.46331 33.7672 8.03426 34.0265C7.60745 34.2067 7.21763 34.1817 6.79164 33.9905C6.32041 33.5229 6.00755 32.9955 5.82044 32.3068C5.73891 32.0623 5.73891 32.0623 5.56681 31.8914C5.26649 31.8262 4.97937 31.806 4.6744 31.7999C3.47738 31.775 2.43885 31.1709 1.56059 30.2291C0.495617 28.9218 0.0143951 27.3496 0.00975382 25.5546C0.0094214 25.4734 0.00909049 25.3921 0.00874799 25.3083C0.00781466 25.042 0.00761329 24.7757 0.00750656 24.5093C0.00718803 24.3224 0.00685351 24.1355 0.00650676 23.9486C0.00591573 23.5576 0.0057321 23.1666 0.0057909 22.7755C0.00580094 22.2772 0.00445126 21.7789 0.00274622 21.2805C0.0016398 20.8946 0.00144355 20.5087 0.00149572 20.1228C0.00137977 19.9392 0.000946413 19.7557 0.000175754 19.5721C-0.00768391 17.5063 0.244341 15.7143 1.50878 14.1653C2.24293 13.3659 3.10491 12.7949 4.08216 12.5326C4.32354 12.5499 4.56481 12.5693 4.80593 12.5909C5.31043 12.5645 5.31043 12.5645 5.71208 12.2374C6.00375 11.7275 6.21134 11.1644 6.43189 10.6088C6.63356 10.1367 6.88334 9.7108 7.14425 9.28189C7.21866 9.15913 7.21866 9.15913 7.29457 9.0339C7.69332 8.39047 8.12973 7.80398 8.59603 7.22785C8.78975 6.98843 8.97082 6.74598 9.14852 6.49032C10.263 4.93808 11.8822 3.70362 13.3859 2.73665C13.448 2.69657 13.5101 2.65649 13.574 2.6152C20.1558 -1.57814 28.5923 -0.678272 34.3689 4.95241Z" fill="#ffffff"/>
<path d="M19.9273 11.2417C20.0329 11.2711 20.1385 11.3006 20.2474 11.3309C20.3414 11.3574 20.4354 11.3839 20.5322 11.4111C22.2753 11.8638 23.9633 11.5795 25.6765 11.0954C26.0241 10.9974 26.3726 10.9055 26.7216 10.8144C26.8692 10.7758 27.0167 10.7366 27.164 10.6967C28.4212 10.3588 29.6615 10.2082 30.8181 10.9801C33.06 12.6788 34.4845 16.2966 35.0456 19.2608C35.5987 22.4648 35.564 26.3208 34.1458 29.2305C33.8401 29.7738 33.5429 30.0647 33.008 30.2223C32.209 30.3128 31.4645 30.2248 30.6759 30.0765C30.5671 30.0565 30.4582 30.0365 30.3461 30.016C29.2035 29.7998 28.0686 29.5353 26.9348 29.2631C25.4808 28.9169 24.0544 28.6964 22.566 28.6989C22.4983 28.699 22.4306 28.6991 22.3608 28.6992C20.1646 28.71 18.0355 29.2068 15.8939 29.7383C12.4592 30.5859 12.4592 30.5859 11.5054 29.9089C10.1627 28.6017 9.84242 26.1882 9.67586 24.253C9.34637 19.9279 10.5019 15.761 12.8365 12.4197C12.9198 12.303 13.0032 12.1864 13.089 12.0662C13.1788 11.9381 13.1788 11.9381 13.2703 11.8074C15.0219 9.51767 17.7619 10.6379 19.9273 11.2417ZM14.0788 18.5968C13.6551 19.3066 13.5118 19.9489 13.5839 20.8126C13.736 21.61 14.0914 22.2635 14.673 22.7163C15.31 23.0989 15.9835 23.1837 16.675 22.9555C17.2871 22.643 17.7628 22.052 18.0548 21.3501C18.2449 20.6443 18.2414 19.8166 17.9821 19.1362C17.6118 18.3972 17.0465 17.9167 16.3552 17.6639C15.4514 17.5252 14.7229 17.8379 14.0788 18.5968ZM27.1591 18.8483C26.7857 19.5499 26.7772 20.239 26.8467 21.0458C27.0222 21.8207 27.4848 22.3489 28.0344 22.7951C28.6324 23.1338 29.2545 23.1603 29.8879 22.9304C30.6133 22.547 31.0155 22.0008 31.3378 21.1551C31.505 20.2291 31.3517 19.4247 30.9357 18.626C30.4095 18.0227 29.8483 17.6618 29.1108 17.6201C28.3023 17.6343 27.6576 18.1244 27.1591 18.8483Z" fill="#ffffff"/>
</svg>
