<?xml version="1.0" standalone="no"?>
<!DOCTYPE svg PUBLIC "-//W3C//DTD SVG 20010904//EN"
 "http://www.w3.org/TR/2001/REC-SVG-20010904/DTD/svg10.dtd">
<svg version="1.0" xmlns="http://www.w3.org/2000/svg"
 width="500.000000pt" height="500.000000pt" viewBox="0 0 500.000000 500.000000"
 preserveAspectRatio="xMidYMid meet">

<g transform="translate(0.000000,500.000000) scale(0.100000,-0.100000)"
fill="#000000" stroke="none">
<path d="M2285 3614 c-461 -82 -820 -408 -884 -805 -46 -279 51 -553 271 -771
l68 -67 2 -311 3 -311 125 108 c69 59 174 150 234 201 71 61 113 91 124 88 95
-29 349 -34 486 -10 362 63 658 269 805 561 67 132 85 215 85 378 0 116 -3
154 -22 219 -105 366 -447 649 -871 720 -115 20 -316 19 -426 0z m393 -30
c254 -37 469 -142 637 -308 116 -115 185 -229 231 -383 23 -76 27 -106 27
-218 0 -112 -4 -142 -27 -220 -107 -356 -428 -616 -850 -690 -100 -17 -260
-19 -356 -5 -161 25 -119 43 -350 -156 l-205 -176 -3 279 -2 279 -55 48 c-123
106 -223 261 -271 421 -37 124 -39 300 -5 420 136 487 667 793 1229 709z"/>
<path d="M2424 3446 c-29 -29 -34 -41 -34 -81 0 -40 5 -51 31 -76 17 -16 37
-29 45 -29 11 0 14 -28 14 -145 l0 -145 -205 0 -205 0 0 45 c0 25 5 45 10 45
6 0 22 11 35 25 56 55 13 155 -67 155 -78 0 -119 -100 -63 -155 13 -14 29 -25
35 -25 5 0 10 -20 10 -45 l0 -45 -64 0 c-86 0 -96 -13 -96 -132 0 -81 -2 -88
-20 -88 -11 0 -29 -9 -40 -20 -19 -19 -20 -33 -20 -199 0 -175 1 -180 22 -195
12 -9 30 -16 40 -16 16 0 18 -12 18 -128 0 -112 2 -131 18 -145 17 -15 74 -17
614 -17 564 0 596 1 611 18 14 15 17 41 17 145 0 115 2 127 18 127 10 0 28 7
40 16 21 15 22 20 22 195 0 166 -1 180 -20 199 -11 11 -29 20 -40 20 -19 0
-20 7 -20 90 0 115 -12 130 -100 130 l-60 0 0 45 c0 25 5 45 10 45 6 0 22 11
35 25 56 55 15 155 -63 155 -80 0 -123 -100 -67 -155 13 -14 29 -25 35 -25 5
0 10 -20 10 -45 l0 -45 -205 0 -205 0 0 145 c0 117 3 145 14 145 8 0 28 13 45
29 26 25 31 36 31 76 0 40 -5 52 -34 81 -28 28 -42 34 -76 34 -34 0 -48 -6
-76 -34z m-334 -256 c24 -24 25 -48 4 -78 -29 -42 -104 -18 -104 35 0 28 33
63 60 63 11 0 29 -9 40 -20z m900 0 c39 -39 14 -100 -41 -100 -30 0 -59 31
-59 62 0 24 35 58 60 58 11 0 29 -9 40 -20z m98 -262 c17 -17 17 -839 0 -856
-17 -17 -1159 -17 -1176 0 -17 17 -17 839 0 856 17 17 1159 17 1176 0z m-1218
-391 c0 -96 -3 -177 -6 -180 -4 -3 -15 -2 -25 4 -17 9 -19 24 -19 173 0 89 3
166 7 169 3 4 15 7 25 7 17 0 18 -12 18 -173z m1308 1 c2 -155 1 -168 -16
-177 -11 -6 -22 -7 -26 -4 -3 3 -6 85 -6 180 l0 174 23 -3 c22 -3 22 -5 25
-170z"/>
<path d="M2123 2730 c-122 -62 -114 -237 13 -286 135 -52 260 86 194 215 -39
77 -132 109 -207 71z m146 -45 c78 -67 54 -181 -47 -216 -42 -14 -93 3 -127
42 -47 56 -25 164 39 189 44 18 103 11 135 -15z"/>
<path d="M2129 2651 c-20 -20 -29 -39 -29 -61 0 -43 47 -90 90 -90 43 0 90 47
90 90 0 43 -47 90 -90 90 -22 0 -41 -9 -61 -29z m44 -16 c7 -17 -8 -29 -28
-21 -17 6 -9 36 10 36 7 0 15 -7 18 -15z"/>
<path d="M2739 2727 c-132 -70 -112 -250 32 -288 41 -11 53 -10 93 5 128 49
135 226 12 285 -55 27 -83 26 -137 -2z m163 -58 c57 -68 27 -171 -58 -199 -89
-30 -184 65 -154 155 6 19 25 46 43 61 27 23 38 26 86 22 47 -4 59 -10 83 -39z"/>
<path d="M2774 2670 c-58 -23 -70 -95 -25 -141 40 -40 82 -39 123 1 26 27 30
36 25 68 -11 63 -65 96 -123 72z m14 -43 c2 -10 -3 -17 -12 -17 -18 0 -29 16
-21 31 9 14 29 6 33 -14z"/>
<path d="M2240 2310 c0 -5 5 -10 11 -10 5 0 7 5 4 10 -3 6 -8 10 -11 10 -2 0
-4 -4 -4 -10z"/>
<path d="M2745 2310 c-3 -5 -1 -10 4 -10 6 0 11 5 11 10 0 6 -2 10 -4 10 -3 0
-8 -4 -11 -10z"/>
<path d="M2283 2273 c-4 -10 2 -23 17 -35 24 -19 24 -19 38 8 12 22 12 28 0
35 -21 14 -48 10 -55 -8z"/>
<path d="M2662 2281 c-12 -7 -12 -13 0 -35 14 -27 14 -27 38 -8 39 32 5 71
-38 43z"/>
<path d="M2375 2236 c-15 -35 -12 -42 28 -51 22 -6 27 -4 27 11 0 11 3 29 6
40 5 17 0 22 -21 26 -23 5 -29 1 -40 -26z"/>
<path d="M2582 2262 c-19 -3 -23 -8 -18 -25 3 -12 6 -30 6 -39 0 -20 8 -22 44
-8 23 8 24 12 15 40 -13 35 -16 37 -47 32z"/>
<path d="M2477 2254 c-4 -4 -7 -25 -7 -46 0 -36 2 -38 31 -38 29 0 30 1 27 43
-2 33 -7 43 -23 45 -12 2 -24 0 -28 -4z"/>
</g>
</svg>
