<svg width="24" height="21" viewBox="0 0 24 21" fill="none" xmlns="http://www.w3.org/2000/svg">
<path d="M5.84488 12.1053H12.0312M5.84488 9.44546H7.39147M5.84488 14.7651H8.93806M7.39147 4.79081H4.2983C3.88812 4.79081 3.49473 4.93092 3.20469 5.18033C2.91465 5.42973 2.75171 5.76799 2.75171 6.12071V16.095C2.75171 16.4477 2.91465 16.7859 3.20469 17.0353C3.49473 17.2847 3.88812 17.4249 4.2983 17.4249H13.5778C13.988 17.4249 14.3814 17.2847 14.6714 17.0353C14.9615 16.7859 15.1244 16.4477 15.1244 16.095V6.12071C15.1244 5.76799 14.9615 5.42973 14.6714 5.18033C14.3814 4.93092 13.988 4.79081 13.5778 4.79081H10.8713M7.39147 4.79081V3.46091M7.39147 4.79081V6.12071" stroke="white" stroke-width="1.5" stroke-linecap="round" stroke-linejoin="round"/>
</svg>
