 <svg  version="1.0" xmlns="http://www.w3.org/2000/svg"  width="300.000000pt" height="270.000000pt" viewBox="0 0 300.000000 270.000000"  preserveAspectRatio="xMidYMid meet">  <g transform="translate(0.000000,270.000000) scale(0.100000,-0.100000)" fill="#ffffff" stroke="none"> <path d="M1600 2510 c8 -5 22 -10 31 -10 9 0 49 -16 89 -37 178 -88 290 -273 290 -477 0 -54 3 -66 25 -86 l25 -23 0 79 c0 265 -188 500 -445 558 -22 5 -26 4 -15 -4z"/> <path d="M1390 2479 c-190 -32 -359 -197 -399 -387 -20 -95 -9 -217 25 -284 8 -16 11 -28 6 -28 -60 0 -93 201 -56 343 18 70 42 122 91 192 l35 50 -36 -40 c-42 -47 -86 -129 -112 -205 -19 -57 -26 -215 -12 -276 l7 -30 -72 24 c-99 34 -299 42 -411 18 -110 -25 -202 -74 -270 -146 -205 -215 -142 -524 136 -659 103 -50 205 -71 346 -71 282 0 537 96 780 294 50 41 89 65 98 62 8 -3 40 -23 72 -45 169 -114 379 -228 508 -274 193 -69 406 -54 589 41 91 48 169 127 209 211 28 60 31 75 31 161 0 83 -4 103 -27 153 -53 113 -182 210 -334 252 -32 9 -115 18 -184 22 -174 7 -304 -22 -507 -114 -7 -3 -13 -1 -13 5 0 14 66 52 90 52 10 0 28 13 39 29 l21 29 -31 43 c-18 24 -43 57 -58 74 -14 16 -19 24 -9 17 20 -15 34 1 15 17 -15 12 -78 -9 -137 -46 -31 -19 -270 -272 -278 -295 -7 -18 48 -88 69 -88 18 0 19 2 9 15 -14 17 -8 31 9 20 22 -13 9 -32 -54 -83 -36 -29 -68 -52 -71 -52 -3 0 -48 30 -100 66 l-94 65 0 55 0 55 28 -15 c35 -18 142 -46 173 -45 14 0 -10 12 -52 28 -109 39 -218 111 -327 215 l-95 92 12 53 c6 30 20 74 31 99 l20 44 45 -68 45 -67 -20 -54 c-23 -61 -25 -94 -8 -111 20 -20 26 -14 48 54 l22 66 41 -39 c23 -21 43 -39 45 -40 2 0 -6 -31 -17 -69 -12 -37 -20 -68 -19 -68 2 -1 10 -7 19 -14 14 -11 19 -4 38 48 12 33 24 60 26 60 1 0 32 -18 68 -39 68 -42 137 -74 144 -67 2 2 -20 17 -50 34 -111 63 -244 210 -326 362 -22 41 -41 80 -41 86 0 6 23 30 52 52 l52 41 23 -56 c12 -31 27 -61 33 -67 7 -9 -2 -24 -30 -51 -44 -43 -47 -51 -25 -82 15 -22 15 -22 55 20 33 34 42 39 49 27 6 -8 21 -31 35 -49 l26 -35 -23 -25 c-50 -56 -51 -60 -31 -82 18 -20 18 -20 55 23 l37 43 54 -51 c55 -53 148 -121 147 -107 0 4 -18 22 -39 39 -100 80 -195 228 -259 402 -17 46 -31 85 -31 86 0 6 118 28 130 24 6 -2 20 -26 30 -54 l18 -51 -54 -17 c-54 -17 -65 -33 -45 -64 7 -11 19 -8 61 13 28 14 54 24 56 22 3 -2 20 -30 38 -60 33 -55 34 -56 13 -62 -38 -11 -97 -38 -97 -45 0 -3 6 -14 13 -24 12 -16 16 -15 70 12 l57 29 75 -73 c87 -87 120 -99 46 -18 -77 84 -137 195 -180 334 -19 59 -19 60 0 60 29 0 139 -39 179 -63 83 -51 157 -138 191 -226 10 -26 18 -37 19 -26 0 39 -67 161 -123 222 -112 120 -286 179 -447 152z m-68 -98 l-4 -41 -25 20 c-14 11 -33 20 -42 20 -9 0 2 11 24 24 22 13 42 23 45 21 3 -2 4 -22 2 -44z m-172 -173 c11 -20 -4 -24 -29 -9 -9 6 -22 6 -33 0 -28 -15 -23 11 10 53 l27 36 8 -32 c4 -17 12 -39 17 -48z m804 -260 l36 -41 -32 -23 c-19 -15 -39 -22 -52 -18 -12 3 -34 6 -49 8 -15 1 -35 10 -44 19 -15 15 -14 16 8 11 l24 -6 -22 20 -22 19 47 26 c26 15 52 27 59 27 6 0 27 -19 47 -42z m-902 -15 c34 -33 35 -43 3 -43 -24 0 -45 25 -45 54 0 23 10 20 42 -11z m768 -73 c33 -42 33 -60 -3 -60 -25 0 -72 64 -63 86 9 25 33 15 66 -26z m-704 -37 c14 -12 24 -35 28 -66 l7 -47 -35 21 c-27 15 -39 32 -52 72 -9 29 -19 59 -22 66 -6 15 22 -3 74 -46z m894 48 c0 -5 -7 -11 -15 -15 -8 -3 -14 -10 -13 -17 2 -6 -6 -17 -18 -25 -20 -13 -21 -13 -20 10 1 14 5 29 10 33 4 4 6 2 4 -6 -1 -7 3 -16 10 -18 7 -3 12 -1 11 4 -4 24 3 43 16 43 8 0 15 -4 15 -9z m-112 -14 c17 0 15 -5 -9 -17 -15 -9 -24 -8 -35 1 -22 18 -17 31 9 23 12 -4 28 -7 35 -7z m-127 -49 c7 -13 2 -22 -24 -42 l-32 -26 -22 27 -22 28 32 33 c34 35 38 34 68 -20z m-971 12 c41 -11 90 -20 108 -20 19 0 45 -9 59 -20 14 -11 38 -20 54 -20 18 0 32 -7 39 -21 7 -11 28 -28 48 -37 21 -10 53 -29 72 -44 19 -14 54 -36 78 -48 23 -12 44 -26 47 -31 14 -21 167 -120 196 -126 21 -4 30 -3 26 4 -4 6 3 14 16 17 12 3 60 42 107 87 47 45 75 76 63 70 -12 -6 -25 -16 -28 -21 -3 -6 -10 -10 -16 -10 -17 0 -9 15 19 33 l27 18 -27 -6 c-16 -3 -28 -2 -27 2 0 5 29 32 65 62 46 39 68 51 76 43 7 -7 3 -18 -16 -37 -15 -15 -26 -28 -24 -30 2 -2 22 8 46 22 31 18 40 29 33 36 -6 6 -11 18 -11 26 0 12 5 10 21 -6 25 -25 20 -33 -44 -72 -58 -35 -35 -38 35 -4 64 30 76 35 203 80 96 34 195 40 271 17 l59 -18 -102 -8 c-118 -9 -261 -46 -348 -90 -114 -57 -309 -203 -320 -239 -4 -11 -11 -17 -16 -14 -15 10 -10 -8 9 -32 20 -25 189 -133 209 -133 7 0 13 -4 13 -10 0 -5 4 -10 10 -10 5 0 34 -11 63 -25 115 -52 240 -85 319 -84 70 1 71 1 -87 39 -117 29 -245 83 -371 156 -166 97 -160 77 -54 163 209 169 388 241 598 241 257 -1 425 -117 425 -295 0 -120 -69 -188 -230 -230 -109 -28 -300 -13 -384 31 -49 25 -45 8 5 -21 99 -58 131 -65 264 -55 188 14 305 69 353 163 31 61 29 171 -5 240 -14 29 -33 58 -43 65 -154 107 -263 163 -373 191 -72 18 -74 19 -35 22 59 6 220 -9 298 -26 141 -32 268 -123 322 -232 25 -50 29 -69 29 -143 0 -72 -4 -94 -27 -143 -109 -236 -493 -350 -783 -231 -105 43 -292 140 -323 168 -10 9 -20 16 -24 16 -6 0 -109 62 -117 71 -3 3 -27 17 -54 32 -48 27 -81 34 -88 20 -5 -11 -154 -124 -218 -165 -155 -98 -342 -165 -490 -175 -83 -6 -87 -5 -158 31 -39 20 -72 40 -72 44 0 4 66 7 148 8 129 1 162 5 267 31 66 17 149 45 185 62 83 41 240 152 261 185 9 14 19 23 24 18 10 -10 -11 29 -27 48 -19 22 -190 130 -288 182 -131 68 -190 89 -246 87 -27 -2 -87 4 -134 13 -318 59 -552 -121 -494 -379 6 -29 22 -68 34 -85 32 -46 180 -153 297 -215 111 -59 105 -62 -57 -34 -124 22 -195 48 -270 99 -247 168 -219 516 54 654 133 67 327 87 476 48z m429 -65 c46 -24 49 -29 54 -73 3 -26 4 -48 2 -50 -2 -2 -26 12 -54 30 -32 21 -51 40 -51 53 0 11 -3 30 -6 43 -8 28 -4 28 55 -3z m455 -2 c19 -26 19 -26 -3 -45 -29 -23 -33 -23 -49 2 -10 17 -9 25 4 45 20 31 24 31 48 -2z m-56 -90 c-15 -19 -23 -16 -36 11 -8 17 -7 27 1 35 16 16 50 -28 35 -46z m-835 31 c71 -18 123 -43 190 -90 26 -19 47 -30 47 -26 0 11 -57 63 -109 101 -24 17 -37 31 -29 31 27 0 299 -142 422 -220 l117 -74 -33 -28 c-179 -149 -350 -223 -583 -249 -251 -27 -444 40 -506 176 -25 54 -25 166 0 220 36 79 124 147 214 165 71 14 206 11 270 -6z m794 -33 c10 -15 9 -22 -1 -30 -10 -8 -16 -5 -24 13 -16 37 4 51 25 17z"/> <path d="M1600 2323 c1 -22 23 -28 107 -28 51 0 89 3 85 7 -19 18 -192 36 -192 21z"/> <path d="M1678 2148 c8 -8 46 -13 105 -14 88 0 90 0 52 12 -55 17 -174 19 -157 2z"/> <path d="M447 923 c-4 -3 -7 -75 -7 -160 l0 -153 25 0 c24 0 24 1 27 109 l3 109 95 -109 c52 -60 101 -109 108 -109 9 0 12 39 12 161 0 158 0 160 -21 157 -21 -3 -22 -8 -20 -118 1 -103 0 -113 -14 -96 -39 50 -188 216 -194 216 -4 0 -11 -3 -14 -7z"/> <path d="M1492 871 c2 -52 1 -60 -12 -55 -75 33 -155 -6 -161 -77 -4 -49 2 -68 32 -98 24 -25 39 -31 73 -31 23 0 47 5 54 12 9 9 12 9 12 0 0 -7 11 -12 25 -12 l26 0 -3 158 c-3 156 -3 157 -26 160 -23 4 -24 2 -20 -57z m-22 -101 c41 -41 12 -120 -45 -120 -14 0 -34 9 -45 20 -41 41 -12 120 45 120 14 0 34 -9 45 -20z"/> <path d="M1889 920 c0 -3 0 -72 0 -155 l0 -150 72 -3 c90 -4 127 10 146 55 14 36 10 67 -13 94 -11 12 -11 21 -2 47 10 26 9 37 -5 66 -10 21 -26 37 -39 40 -36 8 -158 13 -159 6z m149 -52 c18 -18 14 -56 -7 -68 -11 -5 -38 -10 -60 -10 l-41 0 0 45 0 45 48 0 c26 0 53 -5 60 -12z m13 -128 c21 -12 26 -52 7 -68 -7 -5 -39 -12 -71 -14 l-57 -3 0 48 0 47 51 0 c28 0 59 -5 70 -10z"/> <path d="M825 818 c-37 -20 -55 -51 -55 -98 0 -48 18 -79 57 -99 29 -15 86 -14 101 1 9 9 12 9 12 0 0 -7 11 -12 25 -12 l25 0 0 110 0 110 -25 0 c-14 0 -25 -5 -25 -12 0 -9 -3 -9 -12 0 -15 15 -76 15 -103 0z m93 -44 c16 -11 22 -25 22 -54 0 -29 -6 -43 -22 -54 -70 -49 -146 40 -88 102 24 26 57 28 88 6z"/> <path d="M1050 720 l0 -110 25 0 c24 0 25 2 25 74 0 66 3 77 22 90 60 43 108 -2 108 -100 0 -57 2 -64 20 -64 18 0 20 7 20 70 0 81 -13 116 -51 136 -34 17 -90 18 -108 2 -11 -10 -14 -10 -18 0 -3 6 -13 12 -24 12 -18 0 -19 -8 -19 -110z"/> <path d="M1600 755 c0 -68 3 -78 29 -107 30 -34 24 -33 154 -29 l37 1 0 105 0 105 -25 0 c-24 0 -25 -2 -25 -69 0 -63 -2 -71 -26 -90 -34 -27 -50 -26 -79 4 -22 21 -25 33 -25 90 0 58 -2 65 -20 65 -18 0 -20 -7 -20 -75z"/> <path d="M2160 755 c0 -68 3 -78 29 -107 30 -34 24 -33 154 -29 l37 1 0 105 0 105 -25 0 c-24 0 -25 -2 -25 -69 0 -63 -2 -71 -26 -90 -34 -27 -50 -26 -79 4 -22 21 -25 33 -25 90 0 58 -2 65 -20 65 -18 0 -20 -7 -20 -75z"/> <path d="M2450 810 c-24 -24 -26 -63 -4 -81 9 -8 35 -21 58 -29 23 -9 41 -22 41 -30 0 -20 -61 -26 -82 -9 -13 11 -18 10 -29 -6 -13 -17 -12 -21 8 -32 32 -17 99 -16 126 3 26 18 30 65 6 85 -9 8 -35 21 -58 29 -58 22 -55 45 6 43 32 -1 48 3 52 13 14 35 -91 47 -124 14z"/> <path d="M536 558 c-19 -27 -8 -49 39 -77 38 -22 42 -32 21 -50 -14 -12 -46 -5 -46 10 0 5 -7 9 -15 9 -19 0 -19 -14 1 -34 18 -19 65 -21 82 -4 7 7 12 25 12 40 0 22 -9 33 -40 53 -45 28 -44 50 1 41 34 -7 47 9 20 23 -31 17 -59 13 -75 -11z"/> <path d="M872 568 c-7 -7 -12 -22 -12 -34 0 -12 -6 -25 -12 -28 -10 -5 -10 -7 0 -12 7 -3 12 -24 12 -50 0 -32 4 -44 15 -44 11 0 15 12 15 45 0 33 4 45 15 45 8 0 15 7 15 16 0 10 -6 14 -15 10 -10 -4 -15 1 -15 14 0 11 7 20 15 20 8 0 15 7 15 15 0 18 -31 20 -48 3z"/> <path d="M1250 490 c0 -53 4 -90 10 -90 6 0 10 15 10 33 l0 32 26 -32 c14 -18 32 -33 40 -33 12 0 9 8 -10 32 l-25 33 26 27 c35 37 9 37 -29 1 l-28 -27 0 57 c0 31 -4 57 -10 57 -6 0 -10 -37 -10 -90z"/> <path d="M1676 567 c-29 -21 -17 -59 26 -82 37 -20 50 -49 26 -58 -7 -2 -25 3 -40 11 -34 20 -47 9 -23 -18 33 -36 105 -15 105 32 0 16 -36 52 -62 61 -10 4 -18 14 -18 23 0 12 7 15 30 12 34 -5 51 9 29 23 -20 13 -53 11 -73 -4z"/> <path d="M2094 559 c-10 -17 13 -36 27 -22 12 12 4 33 -11 33 -5 0 -12 -5 -16 -11z"/> <path d="M697 502 c-45 -49 15 -136 61 -90 9 9 12 9 12 0 0 -7 7 -12 15 -12 11 0 15 13 15 54 0 54 -15 81 -30 56 -5 -9 -9 -9 -14 -1 -11 17 -41 13 -59 -7z m71 -39 c4 -30 -31 -49 -52 -27 -19 19 -20 26 -4 42 19 19 53 10 56 -15z"/> <path d="M976 501 c-21 -23 -20 -64 2 -83 10 -9 35 -16 60 -16 l42 1 0 56 0 56 -44 2 c-31 1 -49 -4 -60 -16z m73 -25 c23 -28 -17 -68 -45 -45 -15 12 -19 41 -7 52 11 12 40 8 52 -7z"/> <path d="M1137 513 c-4 -3 -7 -30 -7 -60 0 -40 4 -53 15 -53 11 0 15 11 15 41 0 32 4 42 20 46 11 3 20 12 20 19 0 17 -12 18 -28 2 -9 -9 -12 -9 -12 0 0 13 -13 16 -23 5z"/> <path d="M1407 502 c-44 -48 16 -135 61 -90 9 9 12 9 12 0 0 -7 7 -12 15 -12 12 0 15 13 15 60 0 59 -6 70 -27 49 -8 -8 -13 -8 -17 0 -11 17 -41 13 -59 -7z m70 -28 c7 -18 -6 -45 -24 -51 -6 -2 -18 3 -27 12 -12 12 -13 21 -6 36 13 23 48 25 57 3z"/> <path d="M1832 504 c-43 -30 -17 -104 36 -104 27 0 62 33 62 58 0 22 -40 62 -61 62 -8 0 -25 -7 -37 -16z m63 -44 c0 -20 -6 -26 -26 -28 -30 -4 -46 22 -28 45 20 23 54 12 54 -17z"/> <path d="M1981 501 c-26 -26 -27 -55 -1 -81 21 -21 37 -24 64 -14 29 11 18 32 -16 30 -29 -1 -33 2 -33 24 0 21 5 26 33 28 39 4 38 25 -1 30 -16 2 -34 -5 -46 -17z"/> <path d="M2100 460 c0 -42 4 -60 11 -58 15 5 15 111 0 116 -7 2 -11 -16 -11 -58z"/> <path d="M2170 476 c0 -65 33 -91 81 -66 15 8 19 22 19 61 0 63 -23 63 -28 1 -3 -34 -7 -42 -23 -42 -16 0 -19 7 -19 45 0 33 -4 45 -15 45 -11 0 -15 -12 -15 -44z"/> <path d="M2315 512 c-3 -3 -5 -29 -5 -59 0 -40 4 -53 15 -53 11 0 15 12 15 44 0 28 5 46 14 49 21 8 26 -2 26 -50 0 -32 4 -43 15 -43 11 0 15 12 15 44 0 42 13 66 28 52 3 -4 5 -27 3 -51 -1 -35 2 -45 14 -45 11 0 15 11 15 49 0 57 -20 82 -50 63 -12 -7 -21 -8 -25 -2 -6 9 -71 11 -80 2z"/> </g> </svg> 